<svg xmlns="http://www.w3.org/2000/svg" version="1.1" xmlns:xlink="http://www.w3.org/1999/xlink" xmlns:svgjs="http://svgjs.dev/svgjs" viewBox="0 0 1422 800" opacity="0.69"><defs><linearGradient x1="50%" y1="0%" x2="50%" y2="100%" id="oooscillate-grad"><stop stop-color="#0a135c" stop-opacity="1" offset="0%"></stop><stop stop-color="#85b4ff" stop-opacity="1" offset="100%"></stop></linearGradient></defs><g stroke-width="4" stroke="url(#oooscillate-grad)" fill="none" stroke-linecap="round"><path d="M 0 304 Q 355.5 155 711 400 Q 1066.5 645 1422 304" opacity="1.00"></path><path d="M 0 266 Q 355.5 155 711 400 Q 1066.5 645 1422 266" opacity="0.86"></path><path d="M 0 228 Q 355.5 155 711 400 Q 1066.5 645 1422 228" opacity="0.73"></path><path d="M 0 190 Q 355.5 155 711 400 Q 1066.5 645 1422 190" opacity="0.59"></path><path d="M 0 152 Q 355.5 155 711 400 Q 1066.5 645 1422 152" opacity="0.46"></path><path d="M 0 114 Q 355.5 155 711 400 Q 1066.5 645 1422 114" opacity="0.32"></path><path d="M 0 76 Q 355.5 155 711 400 Q 1066.5 645 1422 76" opacity="0.19"></path></g></svg>