<svg width="20" height="20" viewBox="0 0 20 20" fill="none" xmlns="http://www.w3.org/2000/svg">
<path d="M9.08325 12.75H10.9166V14.5833H9.08325V12.75ZM9.08325 5.41667H10.9166V10.9167H9.08325V5.41667ZM9.99075 0.833336C4.93075 0.833336 0.833252 4.94 0.833252 10C0.833252 15.06 4.93075 19.1667 9.99075 19.1667C15.0599 19.1667 19.1666 15.06 19.1666 10C19.1666 4.94 15.0599 0.833336 9.99075 0.833336ZM9.99992 17.3333C5.94825 17.3333 2.66659 14.0517 2.66659 10C2.66659 5.94834 5.94825 2.66667 9.99992 2.66667C14.0516 2.66667 17.3333 5.94834 17.3333 10C17.3333 14.0517 14.0516 17.3333 9.99992 17.3333Z" fill="#FF4C51"/>
</svg>
