<svg width="20" height="20" viewBox="0 0 20 20" fill="none" xmlns="http://www.w3.org/2000/svg">
<path d="M9.99992 0.833328C4.93992 0.833328 0.833252 4.93999 0.833252 9.99999C0.833252 15.06 4.93992 19.1667 9.99992 19.1667C15.0599 19.1667 19.1666 15.06 19.1666 9.99999C19.1666 4.93999 15.0599 0.833328 9.99992 0.833328ZM9.99992 17.3333C5.95742 17.3333 2.66659 14.0425 2.66659 9.99999C2.66659 5.95749 5.95742 2.66666 9.99992 2.66666C14.0424 2.66666 17.3333 5.95749 17.3333 9.99999C17.3333 14.0425 14.0424 17.3333 9.99992 17.3333ZM14.2074 5.94833L8.16658 11.9892L5.79242 9.62416L4.49992 10.9167L8.16658 14.5833L15.4999 7.24999L14.2074 5.94833Z" fill="#56CA00"/>
</svg>
