<svg width="24" height="13" viewBox="0 0 24 13" fill="none" xmlns="http://www.w3.org/2000/svg">
<path d="M0.880168 8.59002L4.75017 12.5C4.84313 12.5938 4.95373 12.6681 5.07559 12.7189C5.19745 12.7697 5.32816 12.7958 5.46017 12.7958C5.59218 12.7958 5.72289 12.7697 5.84474 12.7189C5.9666 12.6681 6.0772 12.5938 6.17017 12.5C6.2639 12.4071 6.33829 12.2965 6.38906 12.1746C6.43983 12.0527 6.46597 11.922 6.46597 11.79C6.46597 11.658 6.43983 11.5273 6.38906 11.4054C6.33829 11.2836 6.2639 11.173 6.17017 11.08L2.61017 7.50002H23.0002C23.2654 7.50002 23.5197 7.39466 23.7073 7.20713C23.8948 7.01959 24.0002 6.76524 24.0002 6.50002C24.0002 6.23481 23.8948 5.98045 23.7073 5.79292C23.5197 5.60538 23.2654 5.50002 23.0002 5.50002H2.55017L6.17017 1.88002C6.34746 1.69405 6.44636 1.44696 6.44636 1.19002C6.44636 0.933081 6.34746 0.685998 6.17017 0.500022C6.0772 0.406294 5.9666 0.331899 5.84474 0.28113C5.72289 0.230362 5.59218 0.204224 5.46017 0.204224C5.32816 0.204224 5.19745 0.230362 5.07559 0.28113C4.95373 0.331899 4.84313 0.406294 4.75017 0.500022L0.880168 4.35002C0.318366 4.91252 0.00280762 5.67502 0.00280762 6.47002C0.00280762 7.26502 0.318366 8.02752 0.880168 8.59002Z" fill="#11ACED"/>
</svg>
