<svg width="24" height="25" viewBox="0 0 24 25" fill="none" xmlns="http://www.w3.org/2000/svg">
<path d="M13.4998 7.11162C13.4998 7.50944 13.3418 7.89097 13.0605 8.17228C12.7792 8.45358 12.3976 8.61162 11.9998 8.61162C11.602 8.61162 11.2205 8.45358 10.9391 8.17228C10.6578 7.89097 10.4998 7.50944 10.4998 7.11162C10.4998 6.71379 10.6578 6.33226 10.9391 6.05095C11.2205 5.76965 11.602 5.61162 11.9998 5.61162C12.3976 5.61162 12.7792 5.76965 13.0605 6.05095C13.3418 6.33226 13.4998 6.71379 13.4998 7.11162ZM23.9998 19.6116V12.9516C24.0371 9.86906 22.9069 6.88651 20.8361 4.60279C18.7653 2.31906 15.9073 0.903252 12.8358 0.639615C11.1215 0.519673 9.40134 0.769355 7.79185 1.37177C6.18235 1.97418 4.72102 2.91527 3.50672 4.13136C2.29243 5.34746 1.35351 6.81018 0.753484 8.42057C0.153457 10.031 -0.0936746 11.7514 0.0288091 13.4656C0.470809 19.8196 6.08181 24.6116 13.0828 24.6116H18.9998C20.3254 24.61 21.5963 24.0827 22.5336 23.1454C23.4709 22.2081 23.9982 20.9372 23.9998 19.6116ZM12.6998 2.63562C15.2663 2.86265 17.6517 4.05253 19.3769 5.96617C21.1021 7.87981 22.0391 10.3754 21.9998 12.9516V19.6116C21.9998 20.4073 21.6837 21.1703 21.1211 21.7329C20.5585 22.2955 19.7955 22.6116 18.9998 22.6116H13.0828C7.04881 22.6116 2.39981 18.7116 2.02481 13.3276C1.92636 11.9562 2.11178 10.5792 2.56949 9.28268C3.0272 7.98616 3.74736 6.79795 4.68498 5.79229C5.6226 4.78663 6.75754 3.98513 8.01888 3.43786C9.28022 2.8906 10.6409 2.60932 12.0158 2.61162C12.2428 2.61162 12.4718 2.62062 12.6998 2.63562ZM13.9998 18.6116V12.6116C13.9998 12.0812 13.7891 11.5725 13.414 11.1974C13.039 10.8223 12.5302 10.6116 11.9998 10.6116H10.9998C10.7346 10.6116 10.4802 10.717 10.2927 10.9045C10.1052 11.092 9.99981 11.3464 9.99981 11.6116C9.99981 11.8768 10.1052 12.1312 10.2927 12.3187C10.4802 12.5063 10.7346 12.6116 10.9998 12.6116H11.9998V18.6116C11.9998 18.8768 12.1052 19.1312 12.2927 19.3187C12.4802 19.5063 12.7346 19.6116 12.9998 19.6116C13.265 19.6116 13.5194 19.5063 13.7069 19.3187C13.8945 19.1312 13.9998 18.8768 13.9998 18.6116Z" fill="#E8F3FF"/>
</svg>
